<svg aria-hidden="true" role="img" width="38" height="32" viewBox="0 0 38 32" fill="none" xmlns="http://www.w3.org/2000/svg"><g><path fill-rule="evenodd" clip-rule="evenodd" d="M18.3892 25.9278V28.7398C18.3892 29.4239 17.6194 29.8458 17.0049 29.4857L15.6631 28.6492L15.3405 28.4725C15.317 28.4596 13.4663 27.4208 9.40552 25.1415L9.08369 24.9623C8.74864 24.7746 8.47364 24.5058 8.28353 24.1814C8.09565 23.8595 7.99787 23.4944 8.00154 23.1322L8 16.1291V9.11486C8 8.72109 8.11455 8.33662 8.32746 8.00669C8.53845 7.67508 8.84397 7.40259 9.1571 7.25594L15.01 3.97229L15.3305 3.7902C15.4371 3.73089 15.4372 3.73085 15.6523 3.6119L15.6528 3.61163L21.2582 0.470067L21.5865 0.281263C21.9472 0.0795696 22.3554 -0.0164242 22.7693 0.00229618C23.1711 0.0212281 23.5672 0.149069 23.8394 0.337678L29.6724 3.60989L29.9957 3.78696L35.9267 7.11595L36.2507 7.29583C36.5856 7.48398 36.8599 7.75237 37.0499 8.07676C37.2373 8.39773 37.3351 8.76281 37.3319 9.12611L37.3332 15.503C37.3333 16.1799 36.5781 16.6029 35.9744 16.2641L33.4572 14.8516C33.1773 14.6945 33.0049 14.4045 33.0049 14.0907V10.3247L27.9449 7.48403C27.897 7.46099 27.7988 7.4066 27.517 7.24806L22.6663 4.52265L17.623 7.35003C17.5739 7.38139 17.5739 7.38141 17.5424 7.40085L17.5423 7.40086L17.5423 7.40088C17.5233 7.41224 17.1774 7.6071 17.1774 7.6071L12.3286 10.325V21.9333L17.3914 24.7751C17.4276 24.7927 17.4937 24.8294 17.8278 25.0167L17.9686 25.1381L18.0468 25.2394C18.2617 25.405 18.3892 25.6579 18.3892 25.9278ZM17.4688 25.9542L17.4603 25.9466C17.4626 25.9496 17.4654 25.9522 17.4688 25.9542ZM34.3678 17.9386C33.7641 17.601 33.0102 18.0239 33.0102 18.7002V19.2181L20.1801 12.0211L19.7433 11.7741C19.3072 11.5298 18.7691 11.5553 18.3631 11.8357L18.027 12.0192L16.1073 13.0918L15.333 13.5233C14.7134 13.8711 14.5195 14.6326 14.8812 15.2383L15.3214 15.9751L15.7654 16.7199C16.1245 17.321 16.9106 17.5086 17.5327 17.1553C18.2906 16.7307 18.3263 16.7107 18.36 16.6879C18.3631 16.6858 18.3661 16.6838 18.3696 16.6814L19.099 16.2747L20.5584 17.0934L20.5569 30.7609C20.5569 31.445 21.128 31.9997 21.8327 31.9997C22.1559 31.9997 22.4649 31.8813 22.7008 31.6692L22.7318 31.6449C24.1249 30.5529 24.127 30.5513 24.4197 30.3216C24.7515 30.062 24.9261 29.6606 24.8899 29.2505L24.8926 19.5263L34.0703 24.6908C34.7111 25.0491 35.4251 24.809 35.9026 24.2166L37.0807 23.0517C37.2462 22.8871 37.3385 22.6668 37.3385 22.4375V20.1075C37.3385 19.7932 37.1656 19.5028 36.885 19.3459L34.3678 17.9386Z" fill="#333333"></path></g><defs><clipPath><rect width="37.3385" height="31.9997" fill="white"></rect></clipPath></defs></svg>