<svg xmlns="http://www.w3.org/2000/svg" width="37.3385" height="31.9997" viewBox="0 0 7020 2340" fill="none">
<path d="M943.338 336.458C933.684 211.838 871.906 129.892 786.89 78.4872C699.208 25.4701 586.422 4.78216 480.053 4.78216C346.9 4.78216 236.461 35.765 159.567 92.1031C82.9764 148.219 39.0667 229.877 39.0667 333.208C39.0667 419.489 68.4119 485.804 118.574 534.211C168.939 582.813 240.99 614.019 327.325 628.408L327.385 628.418L531.509 663.829L531.584 663.84C565.728 669.184 591.856 678.931 609.67 692.435C627.77 706.156 637.306 723.846 637.306 743.846C637.306 770.399 620.582 790.769 593.852 803.993C567.322 817.119 529.77 823.974 484.222 823.974C430.069 823.974 383.337 813.91 347.995 791.821C314.324 770.776 291.616 739.187 282.684 696.769L0.311523 694.808C12.6142 821.255 69.3913 910.318 154.117 968.366C241.43 1028.19 359.235 1055.6 490.475 1055.6C620.717 1055.6 737.022 1028.69 820.461 973.743C903.467 919.081 954.391 836.45 954.391 723.001C954.391 635.798 924.096 570.611 871.191 522.721C817.986 474.56 741.198 443.258 647.292 425.703L457.617 394.438L457.531 394.423C417.119 386.978 389.268 375.078 371.379 359.786C353.13 344.186 345.729 325.443 345.729 306.11C345.729 282.773 357.574 261.752 380.755 246.975C403.619 232.399 437.361 223.897 482.137 223.897C530.026 223.897 573.074 232.915 605.263 252.617C635.583 271.175 655.934 299.061 661.334 336.458H943.338Z" fill="black"/>
<path d="M1449.76 110.593V31.8801H1130.59V1024.33H1449.76V396.432L1452.05 393.815C1511.5 325.871 1580.54 288.515 1646.62 288.515C1703.82 288.515 1752.41 306.381 1786.6 343.91C1820.69 381.32 1839.31 437.002 1839.31 510.387V1024.33H2160.56V456.191C2160.56 314.244 2117.39 200.472 2043.49 122.26C1969.64 44.0913 1864.32 0.613281 1738.33 0.613281C1632.24 0.613281 1544.6 35.2061 1464.77 98.6569L1449.76 110.593Z" fill="black"/>
<path fill-rule="evenodd" clip-rule="evenodd" d="M3107.83 31.8801V93.7178L3093.59 84.6199C3020.08 37.6539 2930.1 8.95103 2821.34 8.95103C2553.63 8.95103 2328.24 229.681 2328.24 527.062C2328.24 822.383 2553.65 1045.17 2821.34 1045.17C2930.1 1045.17 3020.08 1016.47 3093.59 969.505L3107.83 960.407V1024.33H3427V31.8801H3107.83ZM3105.6 364.704L3107.83 367.304V686.821L3105.6 689.421C3040.91 764.886 2965.12 786.454 2888.04 786.454C2744.79 786.454 2641.16 671.251 2641.16 527.062C2641.16 382.977 2744.69 265.586 2888.04 265.586C2965.3 265.586 3041.02 289.357 3105.6 364.704Z" fill="black"/>
<path d="M4538.06 763.525H4066.88L4538.06 198.533V31.8801H3620.65V294.769H4098.2L3612.31 872.289V1024.33H4538.06V763.525Z" fill="black"/>
<path d="M5594.29 763.525H5123.11L5594.29 198.533V31.8801H4676.89V294.769H5154.43L4668.55 872.289V1024.33H5594.29V763.525Z" fill="black"/>
<path d="M7019.16 1345.15L6937.95 1634.98L6725 1576.17C6613.54 1858.2 6374.81 2098.22 6068.33 2228.8C5898.55 2301.34 5694.65 2339.15 5484.23 2339.15C5396.18 2338.98 5308.25 2332.38 5221.17 2319.4C4892.41 2269.6 4617.39 2131.35 4445.73 1929.37L4205.55 2181.93L3986.08 1975.39L4662.31 1264.8L4881.78 1471.4L4676.5 1686.94C4684.29 1696.84 4692.07 1706.68 4699.8 1716.17C4958.16 2021 5576.79 2078.54 5936.64 1925.29C6150.08 1834.26 6317.69 1674.52 6401.55 1486.94C6415.35 1456.62 6426.9 1425.34 6436.09 1393.33L6437.13 1389.52C6440.65 1376.63 6444.19 1363.7 6447.32 1350.37C6450.86 1335.4 6454.8 1320.2 6458.78 1304.88L6458.79 1304.84C6468.4 1267.84 6478.19 1230.14 6482.86 1193.3L6798.54 1284.66L7019.16 1345.15Z" fill="black"/>
<path d="M6513.7 830.272L6532.56 835.409C6528.97 903.955 6525.62 968.563 6523.17 1016.03C6522.56 1027.9 6522 1038.7 6521.51 1048.22L6519.59 1085.77L6875.07 1181.3C6891.02 1032.22 6894.28 907.506 6898.12 760.671V760.666C6899.58 704.898 6901.12 645.939 6903.47 581.24C6907.44 472.122 6907.44 332.205 6906.45 219.469C6905.95 163.122 6905.2 113.605 6904.58 78.1748C6904.27 60.4604 6903.99 46.2688 6903.79 36.5076L6903.68 31.1914H6502.66V529.75C6502.66 593.737 6487.68 646.544 6456.81 687.276C6427.14 728.209 6387.66 749.157 6339.09 749.157C6292.75 749.157 6255.25 733.579 6227.82 701.818L6227.75 701.735L6227.68 701.65C6200.73 669.03 6187.49 628.79 6187.49 581.603V31.1914H5788.68V519.779C5788.68 679.224 5824.25 803.066 5894.2 892.479C5965.2 980.224 6063.22 1024.32 6189.52 1024.32C6264.49 1024.32 6328.62 1008.04 6382.32 975.882C6436 943.736 6479.85 895.372 6513.7 830.272Z" fill="black"/>
<path d="M6907.78 773.785C6907.9 769.408 6908.01 765.012 6908.13 760.596L6908.1 761.548C6908 765.644 6907.89 769.722 6907.78 773.785Z" fill="black"/>
</svg>